# xmcd
#
# Track frame offsets:
#	150
#	22044
#	39198
#	51524
#	67028
#	99075
#	124723
#	149214
#	178442
#	209045
#	220975
#	238531
#	264623
#	282696
#
# Disc length: 4039 seconds
#
# Revision: 0
# Processed by: cddbd v1.5.1PL0 Copyright (c) Steve Scherf et al.
# Submitted via: dBpowerAMP V4.0
#
DISCID=eb0fc50e
DTITLE=Billy Boy Arnold - Live At The Venue
DYEAR=1991
DGENRE=Blues
TTITLE0=Night Before Last
TTITLE1=It Ain't Right
TTITLE2=Catfish
TTITLE3=I Ain't Got You
TTITLE4=Dirty Motherfoyou
TTITLE5=Prisoners Plea
TTITLE6=Mary Bernice
TTITLE7=Trust My Baby
TTITLE8=Ooh Wee
TTITLE9=Riding The El
TTITLE10=Me and Piney Brown
TTITLE11=Shake Your Boogie
TTITLE12=I Wish You Would
TTITLE13=Blues Before Sunrise
EXTD=
EXTT0=
EXTT1=
EXTT2=
EXTT3=
EXTT4=
EXTT5=
EXTT6=
EXTT7=
EXTT8=
EXTT9=
EXTT10=
EXTT11=
EXTT12=
EXTT13=
PLAYORDER=
